<svg xmlns="http://www.w3.org/2000/svg"  viewBox="0 0 50 50" width="100px" height="100px" baseProfile="basic"><path fill="#16d6fa" d="M25,45C13.972,45,5,36.028,5,25S13.972,5,25,5s20,8.972,20,20S36.028,45,25,45z M25,9 C16.178,9,9,16.178,9,25s7.178,16,16,16s16-7.178,16-16S33.822,9,25,9z"/><path fill="#16d6fa" d="M25,7c1.024,0,2.022,0.105,3,0.27V1h-6v6.27C22.978,7.105,23.976,7,25,7z"/><path fill="#16d6fa" d="M11.245,13.412l-5.399-3.181L2.8,15.4l5.399,3.181C8.919,16.701,9.948,14.954,11.245,13.412z"/><path fill="#16d6fa" d="M7,25c0-1.024,0.106-2.022,0.27-3H1v6h6.27C7.106,27.022,7,26.024,7,25z"/><path fill="#16d6fa" d="M38.755,36.588l5.399,3.181L47.2,34.6l-5.399-3.181C41.081,33.299,40.052,35.046,38.755,36.588z"/><path fill="#16d6fa" d="M31.458,41.786l3.194,5.391l5.162-3.058l-3.194-5.391C35.081,40.028,33.337,41.061,31.458,41.786z"/><path fill="#16d6fa" d="M38.755,13.412l5.399-3.181L47.2,15.4l-5.399,3.181C41.081,16.701,40.052,14.954,38.755,13.412z"/><path fill="#16d6fa" d="M11.245,36.588l-5.399,3.181L2.8,34.6l5.399-3.181C8.919,33.299,9.948,35.046,11.245,36.588z"/><path fill="#16d6fa" d="M31.458,8.214l3.194-5.391l5.162,3.058l-3.194,5.391C35.081,9.972,33.337,8.939,31.458,8.214z"/><path fill="#16d6fa" d="M25,43c-1.024,0-2.022-0.105-3-0.27V49h6v-6.27C27.022,42.895,26.024,43,25,43z"/><circle cx="25" cy="25" r="5" fill="#16d6fa"/><path fill="#16d6fa" d="M40.73,22c0.001,0.006-0.002,0.013-0.001,0.02L27,23v4l13.729,0.98 c-0.001,0.007,0.003,0.013,0.001,0.02H49v-6H40.73z"/><path fill="#16d6fa" d="M14.58,12.84c0.005-0.004,0.012-0.004,0.018-0.008l7.673,11.426l3.471-1.988L19.771,9.87 c0.006-0.002,0.01-0.009,0.016-0.011l-4.109-7.177l-5.207,2.981L14.58,12.84z"/><path fill="#16d6fa" d="M19.649,40.093c-0.006-0.002-0.01-0.009-0.016-0.011l6.084-12.346l-3.453-2.019l-7.777,11.356 c-0.005-0.004-0.013-0.004-0.018-0.009l-4.175,7.139l5.179,3.029L19.649,40.093z"/><path fill="#00a4ff" d="M44.75,22h-4.02c0.001,0.006-0.002,0.013-0.001,0.02l-0.017,0.001C40.894,22.987,41,23.981,41,25 s-0.106,2.013-0.289,2.979l0.017,0.001c-0.001,0.007,0.003,0.013,0.001,0.02h4.02c0.149-0.981,0.25-1.978,0.25-3 S44.899,22.981,44.75,22z"/><path fill="#00a4ff" d="M14.598,12.832l0.015,0.022c1.507-1.291,3.256-2.3,5.168-2.963L19.771,9.87 c0.006-0.002,0.01-0.009,0.016-0.011l-1.999-3.492c-1.891,0.735-3.643,1.741-5.205,2.984l1.998,3.49 C14.585,12.836,14.592,12.836,14.598,12.832z"/><path fill="#00a4ff" d="M19.633,40.082l0.012-0.024c-1.906-0.68-3.644-1.706-5.14-3.011l-0.017,0.026 c-0.005-0.004-0.013-0.005-0.018-0.009l-2.033,3.476c1.552,1.257,3.296,2.278,5.179,3.03l2.033-3.477 C19.643,40.091,19.639,40.084,19.633,40.082z"/></svg>